<svg width="261" height="241" version="1.1" xmlns="http://www.w3.org/2000/svg" desc="Created with imagetracer.js version 1.2.6" ><path fill="rgb(236,236,236)" stroke="rgb(236,236,236)" stroke-width="1" opacity="0.12941176470588237" d="M 119.5 19 L 123 19.5 L 112.5 23 L 112.5 22 L 119.5 19 Z " /><path fill="rgb(236,236,236)" stroke="rgb(236,236,236)" stroke-width="1" opacity="0.12941176470588237" d="M 140.5 20 Q 146 19.5 148 22.5 L 146.5 23 L 140.5 21 L 140.5 20 Z " /><path fill="rgb(236,236,236)" stroke="rgb(236,236,236)" stroke-width="1" opacity="0.12941176470588237" d="M 109.5 23 L 111 23.5 L 76.5 35 L 71 38.5 L 71 104.5 L 69.5 106 L 34.5 118 L 34.5 117 L 41.5 115 L 43.5 113 L 50.5 112 L 57.5 108 L 61.5 108 L 70 105 L 69 95.5 Q 71.8 93.8 70 87.5 L 69 82.5 L 70 81.5 L 70 72.5 L 69 67.5 Q 71.8 65.8 70 59.5 L 69 55.5 L 70 54.5 L 70 44.5 L 69 40.5 L 71.5 36 L 79.5 32 L 83.5 32 L 109.5 23 Z " /><path fill="rgb(236,236,236)" stroke="rgb(236,236,236)" stroke-width="1" opacity="0.12941176470588237" d="M 152.5 24 L 190 36 L 191 40.5 L 190 41.5 L 190 57.5 L 191 61.5 L 190 64.5 L 191 68.5 L 190 69.5 L 190 84.5 L 191 89.5 L 190 91.5 L 191 96.5 L 190 97.5 L 190 105 L 196.5 106 L 203 109.5 L 201.5 110 L 189 104.5 L 189 96.5 L 190 95.5 L 189 94.5 L 189 38.5 L 186.5 36 L 154.5 26 L 152.5 24 Z " /><path fill="rgb(236,236,236)" stroke="rgb(236,236,236)" stroke-width="1" opacity="0.12941176470588237" d="M 126.5 26 L 136.5 29 L 136.5 28 L 135 27.5 L 136.5 27 L 140 28.5 L 137 29.5 L 142.5 31 L 142.5 30 L 141 29.5 L 142.5 29 L 148 31.5 L 146 32.5 L 148.5 33 L 150.5 32 L 150.5 33 L 149 33.5 L 151.5 34 L 153.5 33 L 153.5 34 L 152 34.5 L 156.5 36 L 156.5 35 L 155 34.5 L 156.5 34 L 163 36.5 L 160 37.5 L 170 41.5 L 168.5 42 L 130.5 29 L 126.5 27 L 126.5 26 Z M 144 31 L 144 32 L 146 32 L 144 31 Z " /><path fill="rgb(236,236,236)" stroke="rgb(236,236,236)" stroke-width="1" opacity="0.12941176470588237" d="M 112.5 31 L 116 31.5 L 112.5 32 L 112.5 31 Z " /><path fill="rgb(236,236,236)" stroke="rgb(236,236,236)" stroke-width="1" opacity="0.12941176470588237" d="M 106.5 33 Q 109.1 32.3 108 35 L 110.5 35 L 131 43.5 L 129.5 44 L 105 34.5 L 106.5 33 Z " /><path fill="rgb(236,236,236)" stroke="rgb(236,236,236)" stroke-width="1" opacity="0.12941176470588237" d="M 128.5 36 L 138 39.5 L 135.5 40 Q 134.1 37.4 129.5 38 L 128.5 36 Z " /><path fill="rgb(236,236,236)" stroke="rgb(236,236,236)" stroke-width="1" opacity="0.12941176470588237" d="M 89.5 39 L 92 39.5 L 88 41.5 L 90 42.5 L 88.5 43 L 85 41.5 L 89.5 39 Z " /><path fill="rgb(236,236,236)" stroke="rgb(236,236,236)" stroke-width="1" opacity="0.12941176470588237" d="M 169.5 39 L 175 41.5 L 171.5 43 L 171.5 42 L 173 41.5 Q 168.8 40.9 169.5 39 Z " /><path fill="rgb(236,236,236)" stroke="rgb(236,236,236)" stroke-width="1" opacity="0.12941176470588237" d="M 96.5 40 L 137 54.5 L 131.5 57 L 131.5 56 Q 134.1 56.7 133 54 L 113.5 48 L 111.5 46 L 100.5 42 L 97.5 42 L 96.5 40 Z " /><path fill="rgb(236,236,236)" stroke="rgb(236,236,236)" stroke-width="1" opacity="0.12941176470588237" d="M 142.5 41 L 152 44.5 L 149.5 45 L 142.5 42 L 142.5 41 Z " /><path fill="rgb(236,236,236)" stroke="rgb(236,236,236)" stroke-width="1" opacity="0.12941176470588237" d="M 91.5 43 L 98 45.5 L 96.5 46 L 91.5 44 L 91.5 43 Z " /><path fill="rgb(236,236,236)" stroke="rgb(236,236,236)" stroke-width="1" opacity="0.12941176470588237" d="M 156.5 46 L 158 46.5 L 150.5 50 L 150.5 49 L 156.5 46 Z " /><path fill="rgb(236,236,236)" stroke="rgb(236,236,236)" stroke-width="1" opacity="0.12941176470588237" d="M 79.5 48 L 119 61.5 L 115.5 62 L 97.5 55 L 95.5 55 L 80.5 50 L 79.5 48 Z " /><path fill="rgb(236,236,236)" stroke="rgb(236,236,236)" stroke-width="1" opacity="0.12941176470588237" d="M 143.5 48 Q 147.3 47.3 148 49.5 L 146.5 50 L 143.5 49 L 143.5 48 Z " /><path fill="rgb(236,236,236)" stroke="rgb(236,236,236)" stroke-width="1" opacity="0.12941176470588237" d="M 180.5 48 L 179.5 50 L 174.5 52 L 174 50 L 180.5 48 Z " /><path fill="rgb(236,236,236)" stroke="rgb(236,236,236)" stroke-width="1" opacity="0.12941176470588237" d="M 111.5 50 L 118 52.5 L 116.5 53 L 111.5 51 L 111.5 50 Z " /><path fill="rgb(236,236,236)" stroke="rgb(236,236,236)" stroke-width="1" opacity="0.12941176470588237" d="M 165.5 53 L 166 55 L 153 59 Q 151.8 56 155.5 57 L 165.5 53 Z " /><path fill="rgb(236,236,236)" stroke="rgb(236,236,236)" stroke-width="1" opacity="0.12941176470588237" d="M 79.5 58 L 81 68 L 79 67.5 L 79.5 58 Z " /><path fill="rgb(236,236,236)" stroke="rgb(236,236,236)" stroke-width="1" opacity="0.12941176470588237" d="M 141.5 61 L 144 61.5 L 141.5 62 L 141.5 61 Z " /><path fill="rgb(236,236,236)" stroke="rgb(236,236,236)" stroke-width="1" opacity="0.12941176470588237" d="M 134.5 64 L 135 67.5 L 134 67.5 L 134.5 64 Z " /><path fill="rgb(236,236,236)" stroke="rgb(236,236,236)" stroke-width="1" opacity="0.12941176470588237" d="M 157.5 65 Q 163.7 64.3 166 67.5 L 164.5 68 L 159.5 66 L 153.5 71 L 153 68 L 157.5 65 Z " /><path fill="rgb(236,236,236)" stroke="rgb(236,236,236)" stroke-width="1" opacity="0.12941176470588237" d="M 125.5 66 L 126 70.5 L 125 70.5 L 125.5 66 Z " /><path fill="rgb(236,236,236)" stroke="rgb(236,236,236)" stroke-width="1" opacity="0.12941176470588237" d="M 174.5 73 L 175 75.5 Q 174 79 168.5 78 L 168.5 77 Q 173.3 77.8 174 74.5 L 174.5 73 Z " /><path fill="rgb(236,236,236)" stroke="rgb(236,236,236)" stroke-width="1" opacity="0.12941176470588237" d="M 143.5 74 L 144 79.5 L 143 79.5 L 143.5 74 Z " /><path fill="rgb(236,236,236)" stroke="rgb(236,236,236)" stroke-width="1" opacity="0.12941176470588237" d="M 160.5 75 L 163 75.5 L 160 76 L 154 83.5 L 154 86 Q 151.6 87.8 145.5 87 Q 143.3 86.3 144 82.5 L 145 82.5 L 146.5 86 L 150.5 86 L 155 81.5 L 160.5 75 Z " /><path fill="rgb(236,236,236)" stroke="rgb(236,236,236)" stroke-width="1" opacity="0.12941176470588237" d="M 125.5 82 L 126 87.5 L 125 87.5 L 125.5 82 Z " /><path fill="rgb(236,236,236)" stroke="rgb(236,236,236)" stroke-width="1" opacity="0.12941176470588237" d="M 180.5 83 L 181 87.5 L 180 87.5 L 180.5 83 Z " /><path fill="rgb(236,236,236)" stroke="rgb(236,236,236)" stroke-width="1" opacity="0.12941176470588237" d="M 79.5 85 L 80 94.5 L 79 94.5 L 79.5 85 Z " /><path fill="rgb(236,236,236)" stroke="rgb(236,236,236)" stroke-width="1" opacity="0.12941176470588237" d="M 134.5 85 L 135 89.5 L 134 89.5 L 134.5 85 Z " /><path fill="rgb(236,236,236)" stroke="rgb(236,236,236)" stroke-width="1" opacity="0.12941176470588237" d="M 134.5 91 L 135 95.5 L 134 95.5 L 134.5 91 Z " /><path fill="rgb(236,236,236)" stroke="rgb(236,236,236)" stroke-width="1" opacity="0.12941176470588237" d="M 180.5 93 L 181 97.5 L 180 97.5 L 180.5 93 Z " /><path fill="rgb(236,236,236)" stroke="rgb(236,236,236)" stroke-width="1" opacity="0.12941176470588237" d="M 125.5 94 L 126 98.5 L 125 98.5 L 125.5 94 Z " /><path fill="rgb(236,236,236)" stroke="rgb(236,236,236)" stroke-width="1" opacity="0.12941176470588237" d="M 79.5 105 L 86.5 106 L 90.5 109 L 97.5 110 L 101 112.5 L 99.5 113 L 81.5 107 L 79.5 105 Z " /><path fill="rgb(236,236,236)" stroke="rgb(236,236,236)" stroke-width="1" opacity="0.12941176470588237" d="M 178.5 105 L 181 105.5 L 162.5 112 L 163.5 110 L 168.5 108 L 172.5 108 L 178.5 105 Z " /><path fill="rgb(236,236,236)" stroke="rgb(236,236,236)" stroke-width="1" opacity="0.12941176470588237" d="M 125.5 109 L 126 114.5 L 125 114.5 L 125.5 109 Z " /><path fill="rgb(236,236,236)" stroke="rgb(236,236,236)" stroke-width="1" opacity="0.12941176470588237" d="M 204.5 110 L 207.5 110 L 226 117.5 L 224.5 118 L 204.5 111 L 204.5 110 Z " /><path fill="rgb(236,236,236)" stroke="rgb(236,236,236)" stroke-width="1" opacity="0.12941176470588237" d="M 134.5 112 L 135 120 L 140.5 119 L 140.5 120 L 134 122 L 134.5 112 Z " /><path fill="rgb(236,236,236)" stroke="rgb(236,236,236)" stroke-width="1" opacity="0.12941176470588237" d="M 159.5 112 L 161 112.5 L 142.5 119 L 142.5 118 L 159.5 112 Z " /><path fill="rgb(236,236,236)" stroke="rgb(236,236,236)" stroke-width="1" opacity="0.12941176470588237" d="M 72.5 113 L 77 114.5 L 64.5 119 L 64.5 118 L 66 117.5 L 64 116.5 L 65.5 116 L 68.5 117 L 68.5 116 L 67 115.5 L 68.5 115 L 71.5 116 L 71.5 115 L 70 114.5 L 72.5 113 Z " /><path fill="rgb(236,236,236)" stroke="rgb(236,236,236)" stroke-width="1" opacity="0.12941176470588237" d="M 102.5 113 L 108.5 114 L 110.5 116 L 121 119.5 L 119.5 120 L 104.5 115 L 102.5 113 Z " /><path fill="rgb(236,236,236)" stroke="rgb(236,236,236)" stroke-width="1" opacity="0.12941176470588237" d="M 185.5 113 L 193 115.5 L 191 116.5 L 193.5 117 L 195.5 116 L 195.5 117 L 194 117.5 L 196.5 118 L 198.5 117 L 198.5 118 L 197 118.5 L 199 119.5 L 197.5 120 L 186 115.5 L 188 114.5 L 185.5 114 L 183.5 115 L 183.5 114 L 185.5 113 Z " /><path fill="rgb(236,236,236)" stroke="rgb(236,236,236)" stroke-width="1" opacity="0.12941176470588237" d="M 61.5 117 L 63 117.5 L 61 118.5 L 63 119.5 L 56.5 122 L 56.5 121 L 58 120.5 L 55.5 120 L 54.5 123 L 50.5 124 L 47.5 123 L 47.5 124 L 49 124.5 L 36.5 129 L 36.5 127 L 34 128.5 L 34.5 130 L 29 128.5 L 61.5 117 Z M 59 119 L 59 120 L 61 120 L 59 119 Z " /><path fill="rgb(236,236,236)" stroke="rgb(236,236,236)" stroke-width="1" opacity="0.12941176470588237" d="M 31.5 118 L 33 118.5 L 23.5 122 L 24.5 120 L 31.5 118 Z " /><path fill="rgb(236,236,236)" stroke="rgb(236,236,236)" stroke-width="1" opacity="0.12941176470588237" d="M 87.5 119 L 98 121 L 97.5 123 Q 94.5 120 88.5 120 Q 81.7 124.7 71.5 126 L 67.5 129 L 62.5 129 L 60.5 131 L 50.5 133 L 50.5 132 L 87.5 119 Z " /><path fill="rgb(236,236,236)" stroke="rgb(236,236,236)" stroke-width="1" opacity="0.12941176470588237" d="M 168.5 119 L 172.5 119 L 210 132.5 L 207.5 133 L 183.5 124 L 168.5 120 L 165 121 Q 163.9 123.7 166.5 123 L 169 124.5 L 167.5 125 L 162 123 Q 160.8 120 164.5 121 L 168.5 119 Z " /><path fill="rgb(236,236,236)" stroke="rgb(236,236,236)" stroke-width="1" opacity="0.12941176470588237" d="M 203.5 119 L 231 128.5 L 225.5 130 L 222 128.5 L 225 127.5 L 216.5 125 L 216.5 126 L 218 126.5 L 216.5 127 L 214 125.5 L 216 124.5 L 213.5 124 L 211.5 125 L 211.5 124 L 213 123.5 L 210.5 123 L 208.5 124 L 205 122.5 L 208 121.5 Q 202.8 121.3 203.5 119 Z M 226 128 L 226 129 L 228 129 L 226 128 Z " /><path fill="rgb(236,236,236)" stroke="rgb(236,236,236)" stroke-width="1" opacity="0.12941176470588237" d="M 230.5 119 L 240 122.5 L 238.5 123 L 230.5 120 L 230.5 119 Z " /><path fill="rgb(236,236,236)" stroke="rgb(236,236,236)" stroke-width="1" opacity="0.12941176470588237" d="M 200.5 120 L 204 121.5 L 202.5 122 L 200.5 120 Z " /><path fill="rgb(236,236,236)" stroke="rgb(236,236,236)" stroke-width="1" opacity="0.12941176470588237" d="M 16.5 123 L 19 123.5 L 16 125.5 Q 16.7 128.1 14 127 L 16.5 123 Z " /><path fill="rgb(236,236,236)" stroke="rgb(236,236,236)" stroke-width="1" opacity="0.12941176470588237" d="M 241.5 123 L 245 125.5 L 244.5 127 L 242.5 124 L 241.5 123 Z " /><path fill="rgb(236,236,236)" stroke="rgb(236,236,236)" stroke-width="1" opacity="0.12941176470588237" d="M 84.5 126 L 88 126.5 L 83.5 128 L 84.5 126 Z " /><path fill="rgb(236,236,236)" stroke="rgb(236,236,236)" stroke-width="1" opacity="0.12941176470588237" d="M 110.5 126 L 119 128 Q 120.3 131 116.5 130 L 114 131 Q 115.8 126.1 109.5 128 L 91.5 134 L 91.5 133 L 110.5 126 Z " /><path fill="rgb(236,236,236)" stroke="rgb(236,236,236)" stroke-width="1" opacity="0.12941176470588237" d="M 147.5 126 L 167 132.5 L 163.5 133 L 148.5 127 L 144 129.5 L 149 131.5 L 147.5 132 L 141 130 Q 139.8 127 143.5 128 L 147.5 126 Z " /><path fill="rgb(236,236,236)" stroke="rgb(236,236,236)" stroke-width="1" opacity="0.12941176470588237" d="M 175.5 127 L 180 128.5 L 178.5 129 L 175.5 128 L 175.5 127 Z " /><path fill="rgb(236,236,236)" stroke="rgb(236,236,236)" stroke-width="1" opacity="0.12941176470588237" d="M 80.5 128 L 82 128.5 L 78.5 130 L 78.5 129 L 80.5 128 Z " /><path fill="rgb(236,236,236)" stroke="rgb(236,236,236)" stroke-width="1" opacity="0.12941176470588237" d="M 72.5 131 L 74 131.5 L 63.5 136 L 54.5 138 L 46 134.5 L 48.5 133 L 56.5 137 L 72.5 131 Z " /><path fill="rgb(236,236,236)" stroke="rgb(236,236,236)" stroke-width="1" opacity="0.12941176470588237" d="M 189.5 132 L 204.5 137 L 211 135 Q 209.9 132.3 212.5 133 L 213.5 135 L 202.5 138 L 189.5 133 L 189.5 132 Z " /><path fill="rgb(236,236,236)" stroke="rgb(236,236,236)" stroke-width="1" opacity="0.12941176470588237" d="M 104.5 133 L 107 133.5 L 77.5 144 L 71.5 144 L 68 142.5 L 73.5 140 L 72.5 143 L 76.5 143 L 104.5 133 Z " /><path fill="rgb(236,236,236)" stroke="rgb(236,236,236)" stroke-width="1" opacity="0.12941176470588237" d="M 153.5 133 L 165.5 136 L 182.5 143 L 187.5 143 L 190.5 141 L 191.5 143 L 182.5 144 L 153.5 134 L 153.5 133 Z " /><path fill="rgb(236,236,236)" stroke="rgb(236,236,236)" stroke-width="1" opacity="0.12941176470588237" d="M 168.5 133 L 180 137.5 L 177.5 138 L 169.5 135 L 168.5 133 Z " /><path fill="rgb(236,236,236)" stroke="rgb(236,236,236)" stroke-width="1" opacity="0.12941176470588237" d="M 88.5 134 L 90 134.5 Q 88.6 137.6 83.5 137 L 83.5 136 L 88.5 134 Z " /><path fill="rgb(236,236,236)" stroke="rgb(236,236,236)" stroke-width="1" opacity="0.12941176470588237" d="M 23 135 L 25 135.5 L 24 136.5 L 24 192.5 L 30 195.5 L 28.5 196 L 23 194 L 23 135 Z " /><path fill="rgb(236,236,236)" stroke="rgb(236,236,236)" stroke-width="1" opacity="0.12941176470588237" d="M 125.5 135 L 126 137.5 L 125.5 142 L 124.5 137 L 114.5 140 L 114.5 139 L 125.5 135 Z " /><path fill="rgb(236,236,236)" stroke="rgb(236,236,236)" stroke-width="1" opacity="0.12941176470588237" d="M 136.5 136 L 141 137.5 L 137.5 138 L 136.5 136 Z " /><path fill="rgb(236,236,236)" stroke="rgb(236,236,236)" stroke-width="1" opacity="0.12941176470588237" d="M 233.5 136 L 235 136.5 L 230 138 L 230 154.5 L 231 157.5 L 230 159.5 L 231 161.5 L 228.5 165 L 222.5 166 L 216.5 163 L 212.5 168 Q 210.3 167.3 211 169.5 L 205.5 174 L 205.5 173 L 208 171.5 L 216.5 162 Q 220.1 164.9 227.5 164 L 229 162.5 L 229 138.5 L 230.5 137 L 233.5 136 Z " /><path fill="rgb(236,236,236)" stroke="rgb(236,236,236)" stroke-width="1" opacity="0.12941176470588237" d="M 14.5 137 L 15 140.5 L 14 140.5 L 14.5 137 Z " /><path fill="rgb(236,236,236)" stroke="rgb(236,236,236)" stroke-width="1" opacity="0.12941176470588237" d="M 28.5 137 L 31 138.5 L 31 162.5 L 32.5 164 Q 39.9 164.9 43.5 162 L 53.5 173 L 55 173.5 L 53.5 174 L 44.5 164 L 33.5 166 L 30 163.5 L 30 155.5 L 29 154.5 L 30 153.5 L 30 138 L 28.5 137 Z " /><path fill="rgb(236,236,236)" stroke="rgb(236,236,236)" stroke-width="1" opacity="0.12941176470588237" d="M 80.5 137 L 82 137.5 L 78.5 139 L 78.5 138 L 80.5 137 Z " /><path fill="rgb(236,236,236)" stroke="rgb(236,236,236)" stroke-width="1" opacity="0.12941176470588237" d="M 142.5 138 L 149 140.5 L 147.5 141 L 142.5 139 L 142.5 138 Z " /><path fill="rgb(236,236,236)" stroke="rgb(236,236,236)" stroke-width="1" opacity="0.12941176470588237" d="M 181.5 138 L 185 139.5 L 183.5 140 L 181.5 138 Z " /><path fill="rgb(236,236,236)" stroke="rgb(236,236,236)" stroke-width="1" opacity="0.12941176470588237" d="M 111.5 140 L 113 140.5 L 94.5 147 L 94.5 146 L 111.5 140 Z " /><path fill="rgb(236,236,236)" stroke="rgb(236,236,236)" stroke-width="1" opacity="0.12941176470588237" d="M 134.5 140 L 135 144.5 L 134 144.5 L 134.5 140 Z " /><path fill="rgb(236,236,236)" stroke="rgb(236,236,236)" stroke-width="1" opacity="0.12941176470588237" d="M 245.5 140 L 246 142.5 L 245 142.5 L 245.5 140 Z " /><path fill="rgb(236,236,236)" stroke="rgb(236,236,236)" stroke-width="1" opacity="0.12941176470588237" d="M 39.5 141 L 44 142.5 L 42.5 143 L 39.5 142 L 39.5 141 Z " /><path fill="rgb(236,236,236)" stroke="rgb(236,236,236)" stroke-width="1" opacity="0.12941176470588237" d="M 219.5 141 L 221 141.5 Q 217.3 144.8 210.5 145 L 210.5 144 L 219.5 141 Z " /><path fill="rgb(236,236,236)" stroke="rgb(236,236,236)" stroke-width="1" opacity="0.12941176470588237" d="M 153.5 142 L 161 144 L 160.5 146 L 153.5 143 L 153.5 142 Z " /><path fill="rgb(236,236,236)" stroke="rgb(236,236,236)" stroke-width="1" opacity="0.12941176470588237" d="M 134.5 146 L 135 150.5 L 134 150.5 L 134.5 146 Z " /><path fill="rgb(236,236,236)" stroke="rgb(236,236,236)" stroke-width="1" opacity="0.12941176470588237" d="M 165.5 146 L 169 147.5 L 167.5 148 L 165.5 146 Z " /><path fill="rgb(236,236,236)" stroke="rgb(236,236,236)" stroke-width="1" opacity="0.12941176470588237" d="M 91.5 147 L 93 147.5 L 85.5 150 L 83.5 152 L 79.5 152 L 79.5 151 L 91.5 147 Z " /><path fill="rgb(236,236,236)" stroke="rgb(236,236,236)" stroke-width="1" opacity="0.12941176470588237" d="M 245.5 147 L 246 151.5 L 245 151.5 L 245.5 147 Z " /><path fill="rgb(236,236,236)" stroke="rgb(236,236,236)" stroke-width="1" opacity="0.12941176470588237" d="M 60 148 L 64 149.5 L 62.5 150 L 61 149.5 L 61 171.5 L 58.5 174 L 60 171.5 L 60 148 Z " /><path fill="rgb(236,236,236)" stroke="rgb(236,236,236)" stroke-width="1" opacity="0.12941176470588237" d="M 125.5 148 L 126 153.5 L 125 153.5 L 125.5 148 Z " /><path fill="rgb(236,236,236)" stroke="rgb(236,236,236)" stroke-width="1" opacity="0.12941176470588237" d="M 170.5 148 L 181 151 Q 182.1 153.7 179.5 153 L 177.5 151 L 170.5 149 L 170.5 148 Z " /><path fill="rgb(236,236,236)" stroke="rgb(236,236,236)" stroke-width="1" opacity="0.12941176470588237" d="M 199.5 148 L 198.5 150 L 190 152 L 191 171.5 L 190 173.5 L 191 178.5 L 190 179.5 L 190 193.5 L 191 198.5 L 190 201.5 L 192 204.5 L 190 208.5 L 191.5 208 L 205.5 204 L 205.5 205 L 190.5 210 L 189 206.5 L 190 202.5 L 189 199.5 L 190 196.5 L 189 195.5 L 189 178.5 L 189 176.5 L 189 152.5 L 190.5 151 L 199.5 148 Z " /><path fill="rgb(236,236,236)" stroke="rgb(236,236,236)" stroke-width="1" opacity="0.12941176470588237" d="M 236.5 148 L 237 150.5 L 236 150.5 L 236.5 148 Z " /><path fill="rgb(236,236,236)" stroke="rgb(236,236,236)" stroke-width="1" opacity="0.12941176470588237" d="M 208.5 149 L 209 152.5 L 208 152.5 L 208.5 149 Z " /><path fill="rgb(236,236,236)" stroke="rgb(236,236,236)" stroke-width="1" opacity="0.12941176470588237" d="M 14.5 150 L 15 154.5 L 14 154.5 L 14.5 150 Z " /><path fill="rgb(236,236,236)" stroke="rgb(236,236,236)" stroke-width="1" opacity="0.12941176470588237" d="M 65.5 150 L 71 152.5 L 71 209.5 L 68.5 210 L 40 199.5 L 41.5 199 L 45.5 201 L 52.5 202 L 57.5 205 L 69 207 Q 70.7 203.6 70 196.5 L 69 192.5 L 70 191.5 L 70 181.5 L 69 177.5 Q 71.8 175.8 70 169.5 L 69 165.5 L 70 164.5 L 70 153 Q 64.9 152.5 65.5 150 Z " /><path fill="rgb(236,236,236)" stroke="rgb(236,236,236)" stroke-width="1" opacity="0.12941176470588237" d="M 220.5 151 L 221 155 L 218 154.5 L 220 154 L 220.5 151 Z " /><path fill="rgb(236,236,236)" stroke="rgb(236,236,236)" stroke-width="1" opacity="0.12941176470588237" d="M 43.5 153 L 47.5 153 L 52 157.5 L 51.5 159 L 47.5 154 Q 42.5 155 43.5 153 Z " /><path fill="rgb(236,236,236)" stroke="rgb(236,236,236)" stroke-width="1" opacity="0.12941176470588237" d="M 212.5 153 L 217 153.5 Q 211.5 153 210 156.5 L 208.5 159 L 208 157.5 L 212.5 153 Z " /><path fill="rgb(236,236,236)" stroke="rgb(236,236,236)" stroke-width="1" opacity="0.12941176470588237" d="M 39.5 154 L 42 154.5 L 39.5 155 L 39.5 154 Z " /><path fill="rgb(236,236,236)" stroke="rgb(236,236,236)" stroke-width="1" opacity="0.12941176470588237" d="M 199.5 157 L 200 161.5 L 199 161.5 L 199.5 157 Z " /><path fill="rgb(236,236,236)" stroke="rgb(236,236,236)" stroke-width="1" opacity="0.12941176470588237" d="M 14.5 164 L 15 167.5 L 14 167.5 L 14.5 164 Z " /><path fill="rgb(236,236,236)" stroke="rgb(236,236,236)" stroke-width="1" opacity="0.12941176470588237" d="M 125.5 165 L 126 169.5 L 125 169.5 L 125.5 165 Z " /><path fill="rgb(236,236,236)" stroke="rgb(236,236,236)" stroke-width="1" opacity="0.12941176470588237" d="M 180.5 166 L 181 169.5 L 180 169.5 L 180.5 166 Z " /><path fill="rgb(236,236,236)" stroke="rgb(236,236,236)" stroke-width="1" opacity="0.12941176470588237" d="M 134.5 167 L 135 171.5 L 134 171.5 L 134.5 167 Z " /><path fill="rgb(236,236,236)" stroke="rgb(236,236,236)" stroke-width="1" opacity="0.12941176470588237" d="M 236.5 167 L 237 169.5 L 236 169.5 L 236.5 167 Z " /><path fill="rgb(236,236,236)" stroke="rgb(236,236,236)" stroke-width="1" opacity="0.12941176470588237" d="M 245.5 167 L 246 170.5 L 245 170.5 L 245.5 167 Z " /><path fill="rgb(236,236,236)" stroke="rgb(236,236,236)" stroke-width="1" opacity="0.12941176470588237" d="M 79.5 168 L 80 177.5 L 79 177.5 L 79.5 168 Z " /><path fill="rgb(236,236,236)" stroke="rgb(236,236,236)" stroke-width="1" opacity="0.12941176470588237" d="M 200.5 172 L 203 173.5 L 201.5 174 L 200.5 172 Z " /><path fill="rgb(236,236,236)" stroke="rgb(236,236,236)" stroke-width="1" opacity="0.12941176470588237" d="M 134.5 173 L 135 178.5 L 134 178.5 L 134.5 173 Z " /><path fill="rgb(236,236,236)" stroke="rgb(236,236,236)" stroke-width="1" opacity="0.12941176470588237" d="M 236.5 175 L 237 178.5 L 236 178.5 L 236.5 175 Z " /><path fill="rgb(236,236,236)" stroke="rgb(236,236,236)" stroke-width="1" opacity="0.12941176470588237" d="M 245.5 175 L 246 179.5 L 245 179.5 L 245.5 175 Z " /><path fill="rgb(236,236,236)" stroke="rgb(236,236,236)" stroke-width="1" opacity="0.12941176470588237" d="M 125.5 176 L 126 180.5 L 125 180.5 L 125.5 176 Z " /><path fill="rgb(236,236,236)" stroke="rgb(236,236,236)" stroke-width="1" opacity="0.12941176470588237" d="M 180.5 176 L 181 179.5 L 180 179.5 L 180.5 176 Z " /><path fill="rgb(236,236,236)" stroke="rgb(236,236,236)" stroke-width="1" opacity="0.12941176470588237" d="M 14.5 177 L 15 181.5 L 14 181.5 L 14.5 177 Z " /><path fill="rgb(236,236,236)" stroke="rgb(236,236,236)" stroke-width="1" opacity="0.12941176470588237" d="M 14.5 191 L 15 195.5 L 14 195.5 L 14.5 191 Z " /><path fill="rgb(236,236,236)" stroke="rgb(236,236,236)" stroke-width="1" opacity="0.12941176470588237" d="M 125.5 192 L 126 194 L 122.5 195 L 123.5 193 L 125.5 192 Z " /><path fill="rgb(236,236,236)" stroke="rgb(236,236,236)" stroke-width="1" opacity="0.12941176470588237" d="M 136.5 193 L 141 195.5 L 139.5 196 L 136 195 L 136.5 193 Z " /><path fill="rgb(236,236,236)" stroke="rgb(236,236,236)" stroke-width="1" opacity="0.12941176470588237" d="M 180.5 193 L 181 197.5 L 180 197.5 L 180.5 193 Z " /><path fill="rgb(236,236,236)" stroke="rgb(236,236,236)" stroke-width="1" opacity="0.12941176470588237" d="M 233 193 L 237 193.5 L 233 195 L 233 193 Z " /><path fill="rgb(236,236,236)" stroke="rgb(236,236,236)" stroke-width="1" opacity="0.12941176470588237" d="M 245.5 194 L 246 197.5 L 242.5 202 L 230.5 205 L 230.5 204 L 240.5 201 L 245 197.5 L 245.5 194 Z " /><path fill="rgb(236,236,236)" stroke="rgb(236,236,236)" stroke-width="1" opacity="0.12941176470588237" d="M 79.5 195 L 81 198.5 L 80 200.5 L 81 206 L 79 205.5 L 79.5 195 Z " /><path fill="rgb(236,236,236)" stroke="rgb(236,236,236)" stroke-width="1" opacity="0.12941176470588237" d="M 15.5 197 L 17.5 200 L 28 203.5 L 24.5 204 L 15 199.5 L 15.5 197 Z " /><path fill="rgb(236,236,236)" stroke="rgb(236,236,236)" stroke-width="1" opacity="0.12941176470588237" d="M 113.5 197 L 115 197.5 L 108.5 200 L 108.5 199 L 113.5 197 Z " /><path fill="rgb(236,236,236)" stroke="rgb(236,236,236)" stroke-width="1" opacity="0.12941176470588237" d="M 145.5 197 L 155 200.5 L 153.5 201 L 145.5 198 L 145.5 197 Z " /><path fill="rgb(236,236,236)" stroke="rgb(236,236,236)" stroke-width="1" opacity="0.12941176470588237" d="M 221.5 198 L 223 198.5 L 207.5 204 L 207.5 203 L 221.5 198 Z " /><path fill="rgb(236,236,236)" stroke="rgb(236,236,236)" stroke-width="1" opacity="0.12941176470588237" d="M 103.5 200 L 107 200.5 L 99.5 203 L 100.5 201 L 103.5 200 Z " /><path fill="rgb(236,236,236)" stroke="rgb(236,236,236)" stroke-width="1" opacity="0.12941176470588237" d="M 156 200 L 174.5 207 L 180 207 L 180.5 203 L 181 206.5 L 180 208.5 L 180.5 210 L 156 202 L 156 200 Z " /><path fill="rgb(236,236,236)" stroke="rgb(236,236,236)" stroke-width="1" opacity="0.12941176470588237" d="M 127.5 201 L 132.5 201 L 141 204.5 L 139.5 205 Q 134.5 202 125.5 203 L 122.5 204 L 122.5 203 L 127.5 201 Z " /><path fill="rgb(236,236,236)" stroke="rgb(236,236,236)" stroke-width="1" opacity="0.12941176470588237" d="M 29.5 204 L 33 205.5 L 31.5 206 L 29.5 204 Z " /><path fill="rgb(236,236,236)" stroke="rgb(236,236,236)" stroke-width="1" opacity="0.12941176470588237" d="M 92.5 204 L 96 204.5 L 79.5 210 L 80.5 208 L 84.5 206 L 86.5 206 L 92.5 204 Z " /><path fill="rgb(236,236,236)" stroke="rgb(236,236,236)" stroke-width="1" opacity="0.12941176470588237" d="M 113.5 206 L 115 206.5 L 105.5 210 L 105.5 209 L 113.5 206 Z " /><path fill="rgb(236,236,236)" stroke="rgb(236,236,236)" stroke-width="1" opacity="0.12941176470588237" d="M 224.5 206 L 226 206.5 L 213.5 211 L 213.5 210 L 224.5 206 Z " /><path fill="rgb(236,236,236)" stroke="rgb(236,236,236)" stroke-width="1" opacity="0.12941176470588237" d="M 37.5 207 L 42 208.5 L 39.5 209 L 37.5 207 Z " /><path fill="rgb(236,236,236)" stroke="rgb(236,236,236)" stroke-width="1" opacity="0.12941176470588237" d="M 148.5 207 L 158 210.5 L 156.5 211 L 149.5 209 L 148.5 207 Z " /><path fill="rgb(236,236,236)" stroke="rgb(236,236,236)" stroke-width="1" opacity="0.12941176470588237" d="M 46.5 210 L 53 212.5 L 51.5 213 L 46.5 211 L 46.5 210 Z " /><path fill="rgb(236,236,236)" stroke="rgb(236,236,236)" stroke-width="1" opacity="0.12941176470588237" d="M 93.5 213 L 95 213.5 Q 92 217 85.5 217 L 85.5 216 L 93.5 213 Z " /><path fill="rgb(236,236,236)" stroke="rgb(236,236,236)" stroke-width="1" opacity="0.12941176470588237" d="M 168.5 214 L 184 219.5 L 181.5 220 L 168.5 215 L 168.5 214 Z " /><path fill="rgb(236,236,236)" stroke="rgb(236,236,236)" stroke-width="1" opacity="0.12941176470588237" d="M 201.5 214 L 203 214.5 Q 200 218 193.5 218 L 193.5 217 L 201.5 214 Z " /><path fill="rgb(236,236,236)" stroke="rgb(236,236,236)" stroke-width="1" opacity="0.12941176470588237" d="M 60.5 215 L 70 218.5 L 66.5 219 L 61.5 217 L 60.5 215 Z " /><path fill="rgb(236,236,236)" stroke="rgb(236,236,236)" stroke-width="1" opacity="0.12941176470588237" d="M 82.5 217 L 84 217.5 L 76.5 220 L 76.5 219 L 82.5 217 Z " /><path fill="rgb(6,6,6)" stroke="rgb(6,6,6)" stroke-width="1" opacity="0.9803921568627451" d="M 128.5 18 Q 160.3 26.2 188 38.5 L 188 104.5 L 189 107 L 226.5 119 L 244 126.5 L 244 197.5 L 241.5 200 L 184.5 219 L 129.5 200 L 74.5 219 L 23.5 202 L 16 197.5 L 16 127.5 L 17 125 L 56.5 112 L 72 105.5 L 72 38.5 L 73.5 37 L 128.5 18 Z M 128 25 L 125 27 L 172 44 L 176 43 L 177 40 L 139 28 L 133 25 L 128 25 Z M 114 30 L 103 35 L 147 51 L 152 51 L 159 48 Q 161 49 160 46 L 114 30 Z M 93 37 L 83 42 L 130 58 L 138 55 L 93 37 Z M 78 47 L 78 106 L 82 108 L 126 123 L 127 122 L 127 65 L 78 47 Z M 181 47 L 175 49 L 173 51 L 173 75 L 172 76 L 161 74 L 153 83 L 149 86 L 146 85 L 145 83 L 145 60 L 133 65 L 133 122 L 135 123 L 179 108 L 182 106 L 182 48 L 181 47 Z M 164 53 L 154 57 L 152 58 L 152 73 L 159 67 L 167 69 L 167 54 L 164 53 Z M 73 112 L 28 129 L 33 131 L 76 116 Q 80 117 78 113 L 73 112 Z M 186 112 L 185 113 Q 181 112 182 115 L 186 117 L 227 131 L 232 129 L 217 122 L 186 112 Z M 88 118 L 49 132 L 45 135 L 56 139 L 99 123 Q 101 124 100 121 L 92 118 L 88 118 Z M 169 118 L 162 121 Q 159 120 160 123 L 204 139 L 216 135 L 176 119 L 169 118 Z M 112 125 L 71 140 L 67 143 L 73 145 L 78 145 L 119 130 Q 121 131 120 128 L 112 125 Z M 149 125 L 142 128 Q 139 127 140 130 L 183 145 Q 190 146 193 143 L 190 140 L 149 125 Z M 23 135 L 23 195 L 71 211 L 72 210 L 72 153 L 70 150 L 60 147 L 60 170 L 59 172 Q 58 174 55 173 L 47 164 L 44 161 L 34 164 L 31 161 L 31 137 L 23 135 Z M 124 135 L 118 138 L 80 150 L 78 152 L 78 211 L 124 196 L 127 194 L 127 136 L 124 135 Z M 133 135 L 133 194 L 137 196 L 149 199 L 181 211 L 182 211 L 182 152 L 170 146 L 137 135 L 133 135 Z M 235 135 L 229 137 L 229 161 L 227 164 L 217 161 L 214 162 L 209 170 Q 208 174 203 173 L 201 172 L 201 150 L 200 147 L 191 150 L 188 153 L 188 210 L 190 211 L 237 195 L 237 136 L 235 135 Z M 38 140 L 38 156 L 48 155 L 52 160 L 53 160 L 53 146 L 50 143 L 38 140 Z M 220 140 L 207 146 L 207 160 L 209 160 L 213 155 L 222 156 L 222 141 L 220 140 Z " /><path fill="rgb(0,0,0)" stroke="rgb(0,0,0)" stroke-width="1" opacity="0" d="M 0 0 L 261 0 L 261 241 L 0 241 L 0 0 Z M 128 17 L 84 32 L 80 32 L 72 36 L 69 41 L 70 45 L 70 55 L 69 56 L 70 60 Q 72 66 69 68 L 70 73 L 70 82 L 69 83 L 70 88 Q 72 94 69 96 L 70 105 L 62 108 L 58 108 L 48 113 L 44 113 L 34 118 L 17 123 L 14 126 L 15 128 L 15 137 L 14 138 L 15 142 L 15 150 L 14 151 L 15 156 L 15 164 L 14 165 L 15 169 L 15 177 L 14 178 L 15 183 L 15 191 L 14 192 L 15 200 L 21 203 L 29 204 L 72 220 L 79 220 L 85 217 L 89 217 L 96 213 L 114 208 L 116 206 L 126 203 L 139 204 L 182 220 L 189 220 Q 191 217 197 218 L 204 214 L 222 209 L 227 206 L 243 202 L 246 198 L 245 194 L 245 181 L 246 180 L 245 175 L 246 171 L 245 167 L 245 153 L 246 152 L 245 147 L 246 143 Q 243 136 245 126 L 238 121 L 213 113 L 208 110 L 204 110 L 197 106 L 190 105 L 190 98 L 191 97 L 190 92 L 191 90 L 190 85 L 190 70 L 191 69 L 190 65 L 191 62 L 190 58 L 190 42 L 191 41 L 190 36 L 149 23 L 144 20 Q 136 21 134 17 L 128 17 Z " /><path fill="rgb(0,0,0)" stroke="rgb(0,0,0)" stroke-width="1" opacity="0" d="M 128.5 26 L 132.5 26 L 137.5 29 L 140.5 29 L 157 35.5 L 154.5 36 L 151.5 34 L 128.5 27 L 128.5 26 Z " /><path fill="rgb(0,0,0)" stroke="rgb(0,0,0)" stroke-width="1" opacity="0" d="M 111.5 32 L 116.5 32 L 127.5 36 L 129.5 38 L 132.5 38 L 156 46.5 L 148.5 50 L 146.5 48 L 139.5 47 L 124.5 40 L 121.5 40 L 108 35 Q 106.8 32 110.5 33 L 111.5 32 Z " /><path fill="rgb(0,0,0)" stroke="rgb(0,0,0)" stroke-width="1" opacity="0" d="M 158.5 36 Q 167.3 37.3 173 41.5 L 170.5 42 L 158.5 37 L 158.5 36 Z " /><path fill="rgb(0,0,0)" stroke="rgb(0,0,0)" stroke-width="1" opacity="0" d="M 92.5 39 L 97.5 42 L 111.5 46 L 113.5 48 L 133 54 Q 134.1 56.7 131.5 56 L 129.5 56 L 88 41.5 L 92.5 39 Z " /><path fill="rgb(0,0,0)" stroke="rgb(0,0,0)" stroke-width="1" opacity="0" d="M 79.5 49 L 96.5 56 L 98.5 56 L 108.5 60 L 119.5 62 L 126 65.5 L 125 70.5 L 126 71.5 L 126 81.5 Q 123.7 82.7 125 87.5 Q 127.3 88.8 126 93.5 L 125 98.5 L 126 99.5 L 126 108.5 Q 123.7 109.7 125 114.5 L 126 121 L 110.5 116 L 108.5 114 L 101.5 113 L 97.5 110 L 90.5 109 L 86.5 106 L 79 105 L 80 85.5 L 79 84.5 L 79 68 Q 82 69.3 81 65.5 L 79 57.5 L 79.5 49 Z " /><path fill="rgb(0,0,0)" stroke="rgb(0,0,0)" stroke-width="1" opacity="0" d="M 180.5 49 L 181 57.5 L 181 59.5 L 181 67.5 L 180 68.5 L 181 69.5 L 181 82.5 L 180 87.5 L 181 92.5 L 180 97.5 L 181 98.5 L 181 105 L 174.5 106 L 172.5 108 L 168.5 108 L 161.5 112 L 154.5 113 L 152.5 115 L 138.5 120 L 135 120 L 135 112.5 L 134 111.5 L 134 96.5 L 135 91.5 L 135 89.5 L 134 84.5 L 134 68.5 L 135 64 L 144 62 L 143 79.5 Q 145.3 80.8 144 85.5 L 145.5 87 Q 151.6 87.8 154 86 L 154 83.5 L 160 76 L 172.5 78 Q 175.5 77.5 175 73.5 L 174 72.5 L 174 52.5 L 180.5 49 Z " /><path fill="rgb(0,0,0)" stroke="rgb(0,0,0)" stroke-width="1" opacity="0" d="M 163.5 55 L 166 55.5 L 166 66.5 L 164.5 66 L 157.5 65 L 153 68 L 153 59.5 L 154.5 59 L 163.5 55 Z " /><path fill="rgb(0,0,0)" stroke="rgb(0,0,0)" stroke-width="1" opacity="0" d="M 185.5 114 L 188 114.5 L 185.5 115 L 185.5 114 Z " /><path fill="rgb(0,0,0)" stroke="rgb(0,0,0)" stroke-width="1" opacity="0" d="M 69.5 115 L 72 115.5 L 54.5 122 L 55.5 120 L 69.5 115 Z " /><path fill="rgb(0,0,0)" stroke="rgb(0,0,0)" stroke-width="1" opacity="0" d="M 189.5 115 L 228 128.5 L 225.5 129 L 191.5 117 L 189.5 115 Z " /><path fill="rgb(0,0,0)" stroke="rgb(0,0,0)" stroke-width="1" opacity="0" d="M 88.5 120 L 97 122.5 L 55.5 137 L 49 133.5 L 56.5 131 L 60.5 131 L 62.5 129 L 67.5 129 L 71.5 126 Q 81.7 124.7 88.5 120 Z " /><path fill="rgb(0,0,0)" stroke="rgb(0,0,0)" stroke-width="1" opacity="0" d="M 168.5 120 L 183.5 124 L 194.5 129 L 211 133 Q 212.3 136 208.5 135 L 203.5 137 L 165 123 Q 163.8 120 167.5 121 L 168.5 120 Z " /><path fill="rgb(0,0,0)" stroke="rgb(0,0,0)" stroke-width="1" opacity="0" d="M 50.5 122 L 49.5 124 L 45.5 125 L 45.5 124 L 50.5 122 Z " /><path fill="rgb(0,0,0)" stroke="rgb(0,0,0)" stroke-width="1" opacity="0" d="M 35.5 127 L 37 127.5 L 34.5 129 L 35.5 127 Z " /><path fill="rgb(0,0,0)" stroke="rgb(0,0,0)" stroke-width="1" opacity="0" d="M 148.5 127 L 189 141.5 Q 187.8 144.3 182.5 143 L 165.5 136 L 152.5 133 L 144 129.5 L 148.5 127 Z " /><path fill="rgb(0,0,0)" stroke="rgb(0,0,0)" stroke-width="1" opacity="0" d="M 109.5 128 Q 115.8 126.1 114 131 L 79.5 141 L 76.5 143 L 72.5 143 L 74.5 140 L 82.5 137 L 86.5 137 L 90.5 134 L 93.5 134 L 109.5 128 Z " /><path fill="rgb(0,0,0)" stroke="rgb(0,0,0)" stroke-width="1" opacity="0" d="M 24 136 L 30 138 L 30 153.5 L 29 154.5 L 30 155.5 L 30 163.5 L 31.5 165 L 35.5 166 L 44.5 164 L 53.5 174 Q 59.8 175.3 61 171.5 L 61.5 149 L 70 153 L 69 168.5 Q 71.8 170.3 70 176.5 L 69 180.5 L 70 181.5 L 70 191.5 L 69 195.5 Q 71.8 197.3 70 203.5 L 69 207 L 57.5 205 L 52.5 202 L 45.5 201 L 24 192.5 L 24 136 Z " /><path fill="rgb(0,0,0)" stroke="rgb(0,0,0)" stroke-width="1" opacity="0" d="M 125.5 136 L 125 137.5 L 126 147.5 Q 123.7 148.8 125 153.5 L 126 154.5 L 126 164.5 L 125 169.5 Q 127.3 170.8 126 175.5 L 125 180.5 L 126 181.5 L 126 191.5 L 121.5 195 L 107.5 200 L 103.5 200 L 96.5 204 L 92.5 204 L 85.5 207 Q 84 204.5 82.5 208 L 79.5 209 L 79 206 Q 82.7 207.3 81 201.5 L 80 199.5 L 81 196.5 L 79 194.5 L 79 178.5 L 80 177.5 L 80 168.5 L 79 167.5 L 79 152 L 83.5 152 L 85.5 150 L 108.5 143 L 119.5 138 L 123.5 138 L 125.5 136 Z " /><path fill="rgb(0,0,0)" stroke="rgb(0,0,0)" stroke-width="1" opacity="0" d="M 134 136 L 160.5 146 L 162.5 146 L 181 153 L 180 169.5 Q 182.3 170.8 181 175.5 L 180 179.5 L 181 180.5 L 181 192.5 L 180 197.5 L 181 202.5 L 180 206.5 L 181 208.5 L 180 208.5 Q 180.6 205.8 174.5 207 L 156.5 200 L 154.5 200 L 141.5 196 L 136.5 193 Q 135.2 195.3 134 192.5 L 135 173.5 L 135 171.5 L 134 166.5 L 134 151.5 L 135 146.5 L 135 144.5 L 134 136 Z " /><path fill="rgb(0,0,0)" stroke="rgb(0,0,0)" stroke-width="1" opacity="0" d="M 235.5 136 Q 238.9 135.1 237 140.5 L 237 142.5 L 236 150.5 L 237 151.5 L 237 166.5 L 236 169.5 L 237 174.5 L 236 178.5 L 237 179.5 L 237 193 L 233 193 Q 234.3 196 230.5 195 L 217.5 200 L 210.5 201 L 206.5 204 L 196.5 206 L 190.5 209 L 190 206.5 Q 193.5 205 191 203.5 L 190 199.5 L 191 194.5 L 190 193.5 L 190 179.5 L 191 174.5 L 190 172.5 L 191 167.5 L 190 166.5 L 190 152 L 193.5 152 L 199.5 149 L 200 156.5 L 199 161.5 L 200 162.5 L 200 172.5 L 201.5 174 L 206.5 174 L 211 169.5 Q 210.3 167.3 212.5 168 L 216.5 163 L 222.5 166 L 226.5 166 L 230 163.5 L 231 160.5 L 230 158.5 L 231 155.5 L 230 154.5 L 230 138 L 235.5 136 Z " /><path fill="rgb(0,0,0)" stroke="rgb(0,0,0)" stroke-width="1" opacity="0" d="M 39 142 L 50.5 145 L 52 146.5 L 51 149.5 Q 53.5 151 52 156.5 L 47.5 153 L 39 154 L 39 142 Z " /><path fill="rgb(0,0,0)" stroke="rgb(0,0,0)" stroke-width="1" opacity="0" d="M 219.5 142 L 221 142.5 L 221 150.5 L 220 154 L 212.5 153 L 208 156.5 L 209 149.5 L 208 146.5 L 219.5 142 Z " /><path fill="rgb(95,95,95)" stroke="rgb(95,95,95)" stroke-width="1" opacity="0.7215686274509804" d="M 125.5 26 L 126.5 28 L 125.5 26 Z " /><path fill="rgb(95,95,95)" stroke="rgb(95,95,95)" stroke-width="1" opacity="0.7215686274509804" d="M 104.5 33 L 103.5 35 L 104.5 33 Z " /><path fill="rgb(95,95,95)" stroke="rgb(95,95,95)" stroke-width="1" opacity="0.7215686274509804" d="M 92.5 37 L 95 38.5 L 93.5 39 L 92.5 37 Z " /><path fill="rgb(95,95,95)" stroke="rgb(95,95,95)" stroke-width="1" opacity="0.7215686274509804" d="M 137.5 38 L 141 39.5 L 139.5 40 L 137.5 38 Z " /><path fill="rgb(95,95,95)" stroke="rgb(95,95,95)" stroke-width="1" opacity="0.7215686274509804" d="M 71.5 39 L 72 105.5 L 70 106.5 L 71 105.5 L 71.5 39 Z " /><path fill="rgb(95,95,95)" stroke="rgb(95,95,95)" stroke-width="1" opacity="0.7215686274509804" d="M 188.5 39 L 189 104.5 L 188 104.5 L 188.5 39 Z " /><path fill="rgb(95,95,95)" stroke="rgb(95,95,95)" stroke-width="1" opacity="0.7215686274509804" d="M 84.5 40 L 83.5 42 L 84.5 40 Z " /><path fill="rgb(95,95,95)" stroke="rgb(95,95,95)" stroke-width="1" opacity="0.7215686274509804" d="M 175.5 40 Q 177.8 39.3 177 41.5 L 174.5 43 L 174.5 42 L 176 41.5 L 175.5 40 Z " /><path fill="rgb(95,95,95)" stroke="rgb(95,95,95)" stroke-width="1" opacity="0.7215686274509804" d="M 159.5 46 L 160 48 L 156.5 49 L 156.5 48 L 159.5 46 Z " /><path fill="rgb(95,95,95)" stroke="rgb(95,95,95)" stroke-width="1" opacity="0.7215686274509804" d="M 174.5 49 L 174 50.5 L 173.5 74 L 173 50.5 L 174.5 49 Z " /><path fill="rgb(95,95,95)" stroke="rgb(95,95,95)" stroke-width="1" opacity="0.7215686274509804" d="M 108.5 50 L 112 51.5 L 110.5 52 L 108.5 50 Z " /><path fill="rgb(95,95,95)" stroke="rgb(95,95,95)" stroke-width="1" opacity="0.7215686274509804" d="M 166.5 53 L 167 56.5 L 166 56.5 L 166.5 53 Z " /><path fill="rgb(95,95,95)" stroke="rgb(95,95,95)" stroke-width="1" opacity="0.7215686274509804" d="M 137.5 54 L 136.5 56 L 137.5 54 Z " /><path fill="rgb(95,95,95)" stroke="rgb(95,95,95)" stroke-width="1" opacity="0.7215686274509804" d="M 125.5 63 L 127 64.5 L 127 121.5 L 125 122.5 L 126 121.5 L 126 64.5 L 125.5 63 Z " /><path fill="rgb(95,95,95)" stroke="rgb(95,95,95)" stroke-width="1" opacity="0.7215686274509804" d="M 134.5 63 L 134 64.5 L 134 121.5 L 135.5 122 L 135.5 123 L 133 121.5 L 133 64.5 L 134.5 63 Z " /><path fill="rgb(95,95,95)" stroke="rgb(95,95,95)" stroke-width="1" opacity="0.7215686274509804" d="M 157.5 67 L 152.5 73 L 157.5 67 Z " /><path fill="rgb(95,95,95)" stroke="rgb(95,95,95)" stroke-width="1" opacity="0.7215686274509804" d="M 166.5 67 L 167 69 L 165 68.5 L 166.5 67 Z " /><path fill="rgb(95,95,95)" stroke="rgb(95,95,95)" stroke-width="1" opacity="0.7215686274509804" d="M 160.5 74 L 164 74.5 L 160.5 75 L 160.5 74 Z " /><path fill="rgb(95,95,95)" stroke="rgb(95,95,95)" stroke-width="1" opacity="0.7215686274509804" d="M 172.5 75 L 171.5 77 L 168 76.5 L 172.5 75 Z " /><path fill="rgb(95,95,95)" stroke="rgb(95,95,95)" stroke-width="1" opacity="0.7215686274509804" d="M 157.5 77 L 153.5 82 L 157.5 77 Z " /><path fill="rgb(95,95,95)" stroke="rgb(95,95,95)" stroke-width="1" opacity="0.7215686274509804" d="M 72.5 112 L 75 112.5 L 72.5 113 L 72.5 112 Z " /><path fill="rgb(95,95,95)" stroke="rgb(95,95,95)" stroke-width="1" opacity="0.7215686274509804" d="M 185.5 112 L 188 112.5 L 185.5 113 L 185.5 112 Z " /><path fill="rgb(95,95,95)" stroke="rgb(95,95,95)" stroke-width="1" opacity="0.7215686274509804" d="M 182 113 L 184 113.5 L 183.5 116 L 182 113 Z " /><path fill="rgb(95,95,95)" stroke="rgb(95,95,95)" stroke-width="1" opacity="0.7215686274509804" d="M 64.5 119 L 66 119.5 L 59.5 122 L 59.5 121 L 64.5 119 Z " /><path fill="rgb(95,95,95)" stroke="rgb(95,95,95)" stroke-width="1" opacity="0.7215686274509804" d="M 142.5 119 L 144 119.5 L 140.5 121 L 140.5 120 L 142.5 119 Z " /><path fill="rgb(95,95,95)" stroke="rgb(95,95,95)" stroke-width="1" opacity="0.7215686274509804" d="M 200.5 121 L 204 122.5 L 202.5 123 L 200.5 121 Z " /><path fill="rgb(95,95,95)" stroke="rgb(95,95,95)" stroke-width="1" opacity="0.7215686274509804" d="M 241.5 124 L 244 125.5 L 242.5 125 L 241.5 124 Z " /><path fill="rgb(95,95,95)" stroke="rgb(95,95,95)" stroke-width="1" opacity="0.7215686274509804" d="M 214.5 133 L 215.5 135 L 214.5 133 Z " /><path fill="rgb(95,95,95)" stroke="rgb(95,95,95)" stroke-width="1" opacity="0.7215686274509804" d="M 126.5 135 L 127 193.5 L 125 194.5 L 126 193.5 L 126.5 135 Z " /><path fill="rgb(95,95,95)" stroke="rgb(95,95,95)" stroke-width="1" opacity="0.7215686274509804" d="M 133.5 135 L 134 193.5 L 135 194.5 L 133 193.5 L 133.5 135 Z " /><path fill="rgb(95,95,95)" stroke="rgb(95,95,95)" stroke-width="1" opacity="0.7215686274509804" d="M 219.5 140 L 222 140.5 L 219.5 141 L 219.5 140 Z " /><path fill="rgb(95,95,95)" stroke="rgb(95,95,95)" stroke-width="1" opacity="0.7215686274509804" d="M 68.5 141 L 67.5 143 L 68.5 141 Z " /><path fill="rgb(95,95,95)" stroke="rgb(95,95,95)" stroke-width="1" opacity="0.7215686274509804" d="M 191.5 141 L 192.5 143 L 191.5 141 Z " /><path fill="rgb(95,95,95)" stroke="rgb(95,95,95)" stroke-width="1" opacity="0.7215686274509804" d="M 96.5 144 L 98 144.5 L 91.5 147 L 91.5 146 L 96.5 144 Z " /><path fill="rgb(95,95,95)" stroke="rgb(95,95,95)" stroke-width="1" opacity="0.7215686274509804" d="M 208.5 144 L 207.5 146 L 208.5 144 Z " /><path fill="rgb(95,95,95)" stroke="rgb(95,95,95)" stroke-width="1" opacity="0.7215686274509804" d="M 165.5 145 L 172 147.5 L 170.5 148 L 165.5 146 L 165.5 145 Z " /><path fill="rgb(95,95,95)" stroke="rgb(95,95,95)" stroke-width="1" opacity="0.7215686274509804" d="M 198.5 147 L 200 147.5 L 196.5 149 L 196.5 148 L 198.5 147 Z " /><path fill="rgb(95,95,95)" stroke="rgb(95,95,95)" stroke-width="1" opacity="0.7215686274509804" d="M 200.5 149 L 201 170.5 L 200 170.5 L 200.5 149 Z " /><path fill="rgb(95,95,95)" stroke="rgb(95,95,95)" stroke-width="1" opacity="0.7215686274509804" d="M 79.5 150 L 81 150.5 L 78.5 152 L 79.5 150 Z " /><path fill="rgb(95,95,95)" stroke="rgb(95,95,95)" stroke-width="1" opacity="0.7215686274509804" d="M 179.5 150 L 182 151.5 L 180.5 151 L 179.5 150 Z " /><path fill="rgb(95,95,95)" stroke="rgb(95,95,95)" stroke-width="1" opacity="0.7215686274509804" d="M 207.5 150 L 208 153.5 L 207 153.5 L 207.5 150 Z " /><path fill="rgb(95,95,95)" stroke="rgb(95,95,95)" stroke-width="1" opacity="0.7215686274509804" d="M 71.5 152 L 72 209.5 L 69.5 211 L 69.5 210 L 71 209.5 L 71.5 152 Z " /><path fill="rgb(95,95,95)" stroke="rgb(95,95,95)" stroke-width="1" opacity="0.7215686274509804" d="M 188.5 152 L 189 210 L 191 210.5 L 189.5 211 L 188 209.5 L 188.5 152 Z " /><path fill="rgb(95,95,95)" stroke="rgb(95,95,95)" stroke-width="1" opacity="0.7215686274509804" d="M 43.5 154 L 47 154.5 L 43.5 155 L 43.5 154 Z " /><path fill="rgb(95,95,95)" stroke="rgb(95,95,95)" stroke-width="1" opacity="0.7215686274509804" d="M 213.5 154 L 217 154.5 L 213.5 155 L 213.5 154 Z " /><path fill="rgb(95,95,95)" stroke="rgb(95,95,95)" stroke-width="1" opacity="0.7215686274509804" d="M 38.5 155 L 42 155.5 L 38.5 156 L 38.5 155 Z " /><path fill="rgb(95,95,95)" stroke="rgb(95,95,95)" stroke-width="1" opacity="0.7215686274509804" d="M 218.5 155 L 222 155.5 L 218.5 156 L 218.5 155 Z " /><path fill="rgb(95,95,95)" stroke="rgb(95,95,95)" stroke-width="1" opacity="0.7215686274509804" d="M 210.5 157 L 208.5 160 L 207 159.5 L 210.5 157 Z " /><path fill="rgb(95,95,95)" stroke="rgb(95,95,95)" stroke-width="1" opacity="0.7215686274509804" d="M 50.5 158 L 53 159.5 L 51.5 160 L 50.5 158 Z " /><path fill="rgb(95,95,95)" stroke="rgb(95,95,95)" stroke-width="1" opacity="0.7215686274509804" d="M 45.5 162 L 46.5 164 L 45.5 162 Z " /><path fill="rgb(95,95,95)" stroke="rgb(95,95,95)" stroke-width="1" opacity="0.7215686274509804" d="M 212.5 165 L 209.5 169 L 212.5 165 Z " /><path fill="rgb(95,95,95)" stroke="rgb(95,95,95)" stroke-width="1" opacity="0.7215686274509804" d="M 48.5 166 L 52.5 171 L 48.5 166 Z " /><path fill="rgb(95,95,95)" stroke="rgb(95,95,95)" stroke-width="1" opacity="0.7215686274509804" d="M 16.5 198 L 17.5 200 L 16.5 198 Z " /><path fill="rgb(95,95,95)" stroke="rgb(95,95,95)" stroke-width="1" opacity="0.7215686274509804" d="M 243.5 198 L 242.5 200 L 243.5 198 Z " /><path fill="rgb(95,95,95)" stroke="rgb(95,95,95)" stroke-width="1" opacity="0.7215686274509804" d="M 192.5 216 L 194 216.5 L 190.5 218 L 190.5 217 L 192.5 216 Z " /><path fill="rgb(95,95,95)" stroke="rgb(95,95,95)" stroke-width="1" opacity="0.7215686274509804" d="M 186.5 218 L 189 218.5 L 186.5 219 L 186.5 218 Z " /><path fill="rgb(155,155,155)" stroke="rgb(155,155,155)" stroke-width="1" opacity="0.4980392156862745" d="M 105.5 33 L 104.5 35 L 105.5 33 Z " /><path fill="rgb(155,155,155)" stroke="rgb(155,155,155)" stroke-width="1" opacity="0.4980392156862745" d="M 72.5 37 L 71.5 39 L 72.5 37 Z " /><path fill="rgb(155,155,155)" stroke="rgb(155,155,155)" stroke-width="1" opacity="0.4980392156862745" d="M 85.5 40 L 84.5 42 L 85.5 40 Z " /><path fill="rgb(155,155,155)" stroke="rgb(155,155,155)" stroke-width="1" opacity="0.4980392156862745" d="M 174.5 40 L 175.5 42 L 174.5 40 Z " /><path fill="rgb(155,155,155)" stroke="rgb(155,155,155)" stroke-width="1" opacity="0.4980392156862745" d="M 158.5 46 L 157.5 48 L 158.5 46 Z " /><path fill="rgb(155,155,155)" stroke="rgb(155,155,155)" stroke-width="1" opacity="0.4980392156862745" d="M 78.5 48 L 79 105.5 L 78 105.5 L 78.5 48 Z " /><path fill="rgb(155,155,155)" stroke="rgb(155,155,155)" stroke-width="1" opacity="0.4980392156862745" d="M 181.5 48 L 182 105.5 L 179.5 107 L 179.5 106 L 181 105.5 L 181.5 48 Z " /><path fill="rgb(155,155,155)" stroke="rgb(155,155,155)" stroke-width="1" opacity="0.4980392156862745" d="M 147.5 50 L 150 50.5 L 147.5 51 L 147.5 50 Z " /><path fill="rgb(155,155,155)" stroke="rgb(155,155,155)" stroke-width="1" opacity="0.4980392156862745" d="M 166.5 57 L 167 66.5 L 166 66.5 L 166.5 57 Z " /><path fill="rgb(155,155,155)" stroke="rgb(155,155,155)" stroke-width="1" opacity="0.4980392156862745" d="M 152.5 58 L 153 71.5 L 152 71.5 L 152.5 58 Z " /><path fill="rgb(155,155,155)" stroke="rgb(155,155,155)" stroke-width="1" opacity="0.4980392156862745" d="M 144.5 60 L 145 81.5 L 144 81.5 L 144.5 60 Z " /><path fill="rgb(155,155,155)" stroke="rgb(155,155,155)" stroke-width="1" opacity="0.4980392156862745" d="M 159.5 75 L 158.5 77 L 159.5 75 Z " /><path fill="rgb(155,155,155)" stroke="rgb(155,155,155)" stroke-width="1" opacity="0.4980392156862745" d="M 154.5 81 L 150.5 86 L 154.5 81 Z " /><path fill="rgb(155,155,155)" stroke="rgb(155,155,155)" stroke-width="1" opacity="0.4980392156862745" d="M 145.5 84 L 146.5 86 L 145.5 84 Z " /><path fill="rgb(155,155,155)" stroke="rgb(155,155,155)" stroke-width="1" opacity="0.4980392156862745" d="M 70.5 105 L 69.5 107 L 68 106.5 L 70.5 105 Z " /><path fill="rgb(155,155,155)" stroke="rgb(155,155,155)" stroke-width="1" opacity="0.4980392156862745" d="M 189.5 105 L 192 106.5 L 190.5 107 L 189.5 105 Z " /><path fill="rgb(155,155,155)" stroke="rgb(155,155,155)" stroke-width="1" opacity="0.4980392156862745" d="M 169.5 118 L 172 118.5 L 169.5 119 L 169.5 118 Z " /><path fill="rgb(155,155,155)" stroke="rgb(155,155,155)" stroke-width="1" opacity="0.4980392156862745" d="M 98 121 L 100 121.5 L 98 122.5 L 98 121 Z " /><path fill="rgb(155,155,155)" stroke="rgb(155,155,155)" stroke-width="1" opacity="0.4980392156862745" d="M 15.5 127 L 16 196.5 L 15 196.5 L 15.5 127 Z " /><path fill="rgb(155,155,155)" stroke="rgb(155,155,155)" stroke-width="1" opacity="0.4980392156862745" d="M 244.5 127 L 245 197.5 L 244 197.5 L 244.5 127 Z " /><path fill="rgb(155,155,155)" stroke="rgb(155,155,155)" stroke-width="1" opacity="0.4980392156862745" d="M 46.5 133 L 45.5 135 L 46.5 133 Z " /><path fill="rgb(155,155,155)" stroke="rgb(155,155,155)" stroke-width="1" opacity="0.4980392156862745" d="M 213.5 133 L 214.5 135 L 213.5 133 Z " /><path fill="rgb(155,155,155)" stroke="rgb(155,155,155)" stroke-width="1" opacity="0.4980392156862745" d="M 39.5 140 L 39 141.5 L 38.5 155 L 38 141.5 L 39.5 140 Z " /><path fill="rgb(155,155,155)" stroke="rgb(155,155,155)" stroke-width="1" opacity="0.4980392156862745" d="M 221.5 141 L 222 154.5 L 221 154.5 L 221.5 141 Z " /><path fill="rgb(155,155,155)" stroke="rgb(155,155,155)" stroke-width="1" opacity="0.4980392156862745" d="M 73.5 144 L 77 144.5 L 73.5 145 L 73.5 144 Z " /><path fill="rgb(155,155,155)" stroke="rgb(155,155,155)" stroke-width="1" opacity="0.4980392156862745" d="M 183.5 144 L 187 144.5 L 183.5 145 L 183.5 144 Z " /><path fill="rgb(155,155,155)" stroke="rgb(155,155,155)" stroke-width="1" opacity="0.4980392156862745" d="M 52.5 145 L 53 158.5 L 52 158.5 L 52.5 145 Z " /><path fill="rgb(155,155,155)" stroke="rgb(155,155,155)" stroke-width="1" opacity="0.4980392156862745" d="M 207.5 146 L 208 149.5 L 207 149.5 L 207.5 146 Z " /><path fill="rgb(155,155,155)" stroke="rgb(155,155,155)" stroke-width="1" opacity="0.4980392156862745" d="M 78.5 152 L 79 209.5 L 78 209.5 L 78.5 152 Z " /><path fill="rgb(155,155,155)" stroke="rgb(155,155,155)" stroke-width="1" opacity="0.4980392156862745" d="M 181.5 152 L 182 209.5 L 181 209.5 L 181.5 152 Z " /><path fill="rgb(155,155,155)" stroke="rgb(155,155,155)" stroke-width="1" opacity="0.4980392156862745" d="M 47.5 154 L 50.5 158 L 47.5 154 Z " /><path fill="rgb(155,155,155)" stroke="rgb(155,155,155)" stroke-width="1" opacity="0.4980392156862745" d="M 207.5 154 L 208 158.5 L 207 158.5 L 207.5 154 Z " /><path fill="rgb(155,155,155)" stroke="rgb(155,155,155)" stroke-width="1" opacity="0.4980392156862745" d="M 212.5 154 L 210.5 157 L 212.5 154 Z " /><path fill="rgb(155,155,155)" stroke="rgb(155,155,155)" stroke-width="1" opacity="0.4980392156862745" d="M 31.5 162 L 32.5 164 L 31.5 162 Z " /><path fill="rgb(155,155,155)" stroke="rgb(155,155,155)" stroke-width="1" opacity="0.4980392156862745" d="M 44.5 162 L 47.5 166 L 44.5 162 Z " /><path fill="rgb(155,155,155)" stroke="rgb(155,155,155)" stroke-width="1" opacity="0.4980392156862745" d="M 215.5 162 L 213.5 165 L 215.5 162 Z " /><path fill="rgb(155,155,155)" stroke="rgb(155,155,155)" stroke-width="1" opacity="0.4980392156862745" d="M 228.5 162 L 227.5 164 L 228.5 162 Z " /><path fill="rgb(155,155,155)" stroke="rgb(155,155,155)" stroke-width="1" opacity="0.4980392156862745" d="M 52.5 171 L 53.5 173 L 52.5 171 Z " /><path fill="rgb(155,155,155)" stroke="rgb(155,155,155)" stroke-width="1" opacity="0.4980392156862745" d="M 207.5 171 L 206.5 173 L 207.5 171 Z " /><path fill="rgb(155,155,155)" stroke="rgb(155,155,155)" stroke-width="1" opacity="0.4980392156862745" d="M 55.5 173 L 58 173.5 L 55.5 174 L 55.5 173 Z " /><path fill="rgb(155,155,155)" stroke="rgb(155,155,155)" stroke-width="1" opacity="0.4980392156862745" d="M 189.5 196 L 190 198.5 L 189 198.5 L 189.5 196 Z " /><path fill="rgb(155,155,155)" stroke="rgb(155,155,155)" stroke-width="1" opacity="0.4980392156862745" d="M 189.5 202 L 190 205.5 L 189 205.5 L 189.5 202 Z " /><path fill="rgb(155,155,155)" stroke="rgb(155,155,155)" stroke-width="1" opacity="0.4980392156862745" d="M 73.5 219 L 76 219.5 L 73.5 220 L 73.5 219 Z " /><path fill="rgb(155,155,155)" stroke="rgb(155,155,155)" stroke-width="1" opacity="0.4980392156862745" d="M 184.5 219 L 187 219.5 L 184.5 220 L 184.5 219 Z " /></svg>