<svg width="512" height="512" version="1.1" xmlns="http://www.w3.org/2000/svg" desc="Created with imagetracer.js version 1.2.6" ><path fill="rgb(0,0,0)" stroke="rgb(0,0,0)" stroke-width="1" opacity="0.8784313725490196" d="M 72.5 155 L 71.5 157 L 72.5 155 Z " /><path fill="rgb(0,0,0)" stroke="rgb(0,0,0)" stroke-width="1" opacity="0.8784313725490196" d="M 69.5 160 L 70 351.5 L 69 351.5 L 69.5 160 Z " /><path fill="rgb(0,0,0)" stroke="rgb(0,0,0)" stroke-width="1" opacity="0.8784313725490196" d="M 358.5 247 L 361 247.5 L 358.5 248 L 358.5 247 Z " /><path fill="rgb(0,0,0)" stroke="rgb(0,0,0)" stroke-width="1" opacity="0.8784313725490196" d="M 249.5 250 L 250 424.5 L 249 424.5 L 249.5 250 Z " /><path fill="rgb(0,0,0)" stroke="rgb(0,0,0)" stroke-width="1" opacity="0.8784313725490196" d="M 340.5 252 L 338.5 255 L 340.5 252 Z " /><path fill="rgb(0,0,0)" stroke="rgb(0,0,0)" stroke-width="1" opacity="0.8784313725490196" d="M 331.5 260 L 329.5 263 L 331.5 260 Z " /><path fill="rgb(0,0,0)" stroke="rgb(0,0,0)" stroke-width="1" opacity="0.8784313725490196" d="M 357.5 260 L 360 260.5 L 357.5 261 L 357.5 260 Z " /><path fill="rgb(0,0,0)" stroke="rgb(0,0,0)" stroke-width="1" opacity="0.8784313725490196" d="M 371.5 261 L 375 261.5 L 371.5 262 L 371.5 261 Z " /><path fill="rgb(0,0,0)" stroke="rgb(0,0,0)" stroke-width="1" opacity="0.8784313725490196" d="M 347.5 264 L 344.5 268 L 347.5 264 Z " /><path fill="rgb(0,0,0)" stroke="rgb(0,0,0)" stroke-width="1" opacity="0.8784313725490196" d="M 338.5 272 L 335.5 276 L 338.5 272 Z " /><path fill="rgb(0,0,0)" stroke="rgb(0,0,0)" stroke-width="1" opacity="0.8784313725490196" d="M 329.5 280 L 326.5 284 L 329.5 280 Z " /><path fill="rgb(0,0,0)" stroke="rgb(0,0,0)" stroke-width="1" opacity="0.8784313725490196" d="M 311.5 287 L 312.5 289 L 311.5 287 Z " /><path fill="rgb(0,0,0)" stroke="rgb(0,0,0)" stroke-width="1" opacity="0.8784313725490196" d="M 218.5 332 L 220.5 335 L 218.5 332 Z " /><path fill="rgb(0,0,0)" stroke="rgb(0,0,0)" stroke-width="1" opacity="0.8784313725490196" d="M 151.5 337 L 154 337.5 L 151.5 338 L 151.5 337 Z " /><path fill="rgb(0,0,0)" stroke="rgb(0,0,0)" stroke-width="1" opacity="0.8784313725490196" d="M 221.5 337 L 222 339.5 L 221 339.5 L 221.5 337 Z " /><path fill="rgb(0,0,0)" stroke="rgb(0,0,0)" stroke-width="1" opacity="0.8784313725490196" d="M 220.5 377 L 219.5 379 L 220.5 377 Z " /><path fill="rgb(0,0,0)" stroke="rgb(0,0,0)" stroke-width="1" opacity="0" d="M 0 0 L 512 0 L 512 512 L 0 512 L 0 0 Z M 254 69 L 74 154 L 69 160 L 69 354 L 70 356 L 90 366 L 256 444 L 263 442 L 440 358 L 443 355 L 443 159 L 439 154 L 429 149 L 260 69 L 254 69 Z " /><path fill="rgb(0,0,0)" stroke="rgb(0,0,0)" stroke-width="1" opacity="0" d="M 255.5 84 L 418 160 Q 419.1 162.7 416.5 162 L 377.5 180 L 216 103.5 L 255.5 84 Z " /><path fill="rgb(0,0,0)" stroke="rgb(0,0,0)" stroke-width="1" opacity="0" d="M 197.5 111 L 347.5 181 L 359 187.5 L 317.5 209 L 314.5 209 L 154 132.5 L 197.5 111 Z " /><path fill="rgb(0,0,0)" stroke="rgb(0,0,0)" stroke-width="1" opacity="0" d="M 135.5 141 L 142.5 143 L 299 217.5 L 255.5 238 L 96.5 162 L 94 162 Q 92.9 159.3 95.5 160 L 135.5 141 Z " /><path fill="rgb(0,0,0)" stroke="rgb(0,0,0)" stroke-width="1" opacity="0" d="M 83 173 L 96.5 178 L 249 250 L 249 423.5 L 247.5 424 L 83 345.5 L 83 173 Z M 151 302 L 149 303 Q 144 305 146 313 L 163 322 L 214 346 L 219 345 L 222 341 L 221 335 L 218 331 L 161 304 L 156 302 L 151 302 Z M 151 337 L 149 338 Q 145 340 146 348 L 152 352 L 214 381 Q 220 381 222 377 L 221 370 L 164 341 L 155 337 L 151 337 Z " /><path fill="rgb(0,0,0)" stroke="rgb(0,0,0)" stroke-width="1" opacity="0" d="M 427.5 173 L 429 173.5 L 429 345.5 L 373.5 373 L 265.5 424 L 263 424 L 263 251.5 L 264.5 250 L 308.5 229 L 309 284.5 L 313.5 290 Q 320.2 291.2 322.5 288 L 352.5 261 L 364.5 261 L 365.5 262 L 378.5 262 L 383 258.5 L 383 194.5 L 384.5 194 L 427.5 173 Z " /><path fill="rgb(0,0,0)" stroke="rgb(0,0,0)" stroke-width="1" opacity="0" d="M 367.5 201 L 368 248 L 365.5 247 L 348.5 246 L 344.5 248 L 323.5 267 L 323 222 L 367.5 201 Z " /><path fill="rgb(0,0,0)" stroke="rgb(0,0,0)" stroke-width="1" opacity="0.4745098039215686" d="M 216.5 102 L 215.5 104 L 216.5 102 Z " /><path fill="rgb(0,0,0)" stroke="rgb(0,0,0)" stroke-width="1" opacity="0.4745098039215686" d="M 154.5 131 L 153.5 133 L 154.5 131 Z " /><path fill="rgb(0,0,0)" stroke="rgb(0,0,0)" stroke-width="1" opacity="0.4745098039215686" d="M 428.5 172 L 430 172.5 L 430 345.5 L 428 346.5 L 429 345.5 L 429 173.5 L 428.5 172 Z " /><path fill="rgb(0,0,0)" stroke="rgb(0,0,0)" stroke-width="1" opacity="0.4745098039215686" d="M 358.5 186 L 359.5 188 L 358.5 186 Z " /><path fill="rgb(0,0,0)" stroke="rgb(0,0,0)" stroke-width="1" opacity="0.4745098039215686" d="M 368.5 201 L 369 247.5 L 368 247.5 L 368.5 201 Z " /><path fill="rgb(0,0,0)" stroke="rgb(0,0,0)" stroke-width="1" opacity="0.4745098039215686" d="M 299.5 217 L 298.5 219 L 299.5 217 Z " /><path fill="rgb(0,0,0)" stroke="rgb(0,0,0)" stroke-width="1" opacity="0.4745098039215686" d="M 309.5 229 L 310 284.5 L 309 284.5 L 309.5 229 Z " /><path fill="rgb(0,0,0)" stroke="rgb(0,0,0)" stroke-width="1" opacity="0.4745098039215686" d="M 348.5 246 L 354 246.5 L 348.5 247 L 348.5 246 Z " /><path fill="rgb(0,0,0)" stroke="rgb(0,0,0)" stroke-width="1" opacity="0.4745098039215686" d="M 361.5 247 L 366 247.5 L 361.5 248 L 361.5 247 Z " /><path fill="rgb(0,0,0)" stroke="rgb(0,0,0)" stroke-width="1" opacity="0.4745098039215686" d="M 344.5 248 L 341.5 252 L 344.5 248 Z " /><path fill="rgb(0,0,0)" stroke="rgb(0,0,0)" stroke-width="1" opacity="0.4745098039215686" d="M 336.5 255 L 332.5 260 L 336.5 255 Z " /><path fill="rgb(0,0,0)" stroke="rgb(0,0,0)" stroke-width="1" opacity="0.4745098039215686" d="M 382.5 258 L 380.5 261 L 382.5 258 Z " /><path fill="rgb(0,0,0)" stroke="rgb(0,0,0)" stroke-width="1" opacity="0.4745098039215686" d="M 352.5 260 L 357 260.5 Q 350.1 260.1 348.5 265 L 352.5 260 Z " /><path fill="rgb(0,0,0)" stroke="rgb(0,0,0)" stroke-width="1" opacity="0.4745098039215686" d="M 365.5 261 L 371 261.5 L 365.5 262 L 365.5 261 Z " /><path fill="rgb(0,0,0)" stroke="rgb(0,0,0)" stroke-width="1" opacity="0.4745098039215686" d="M 327.5 263 L 324.5 267 L 327.5 263 Z " /><path fill="rgb(0,0,0)" stroke="rgb(0,0,0)" stroke-width="1" opacity="0.4745098039215686" d="M 343.5 268 L 340.5 272 L 343.5 268 Z " /><path fill="rgb(0,0,0)" stroke="rgb(0,0,0)" stroke-width="1" opacity="0.4745098039215686" d="M 334.5 276 L 331.5 280 L 334.5 276 Z " /><path fill="rgb(0,0,0)" stroke="rgb(0,0,0)" stroke-width="1" opacity="0.4745098039215686" d="M 325.5 284 L 322.5 288 L 325.5 284 Z " /><path fill="rgb(0,0,0)" stroke="rgb(0,0,0)" stroke-width="1" opacity="0.4745098039215686" d="M 148.5 303 L 146.5 306 L 148.5 303 Z " /><path fill="rgb(0,0,0)" stroke="rgb(0,0,0)" stroke-width="1" opacity="0.4745098039215686" d="M 146.5 312 L 148.5 315 L 146.5 312 Z " /><path fill="rgb(0,0,0)" stroke="rgb(0,0,0)" stroke-width="1" opacity="0.4745098039215686" d="M 148.5 338 L 147.5 340 L 148.5 338 Z " /><path fill="rgb(0,0,0)" stroke="rgb(0,0,0)" stroke-width="1" opacity="0.4745098039215686" d="M 220.5 342 L 218.5 345 L 220.5 342 Z " /><path fill="rgb(0,0,0)" stroke="rgb(0,0,0)" stroke-width="1" opacity="0.4745098039215686" d="M 213.5 345 L 216 345.5 L 213.5 346 L 213.5 345 Z " /><path fill="rgb(0,0,0)" stroke="rgb(0,0,0)" stroke-width="1" opacity="0.4745098039215686" d="M 148.5 349 L 149.5 351 L 148.5 349 Z " /><path fill="rgb(0,0,0)" stroke="rgb(0,0,0)" stroke-width="1" opacity="0.4745098039215686" d="M 442.5 354 L 441.5 356 L 442.5 354 Z " /><path fill="rgb(0,0,0)" stroke="rgb(0,0,0)" stroke-width="1" opacity="0.4745098039215686" d="M 70.5 355 L 71.5 357 L 70.5 355 Z " /><path fill="rgb(0,0,0)" stroke="rgb(0,0,0)" stroke-width="1" opacity="0.4745098039215686" d="M 219.5 368 L 220.5 370 L 219.5 368 Z " /><path fill="rgb(0,0,0)" stroke="rgb(0,0,0)" stroke-width="1" opacity="0.4745098039215686" d="M 213.5 380 L 217 380.5 L 213.5 381 L 213.5 380 Z " /><path fill="rgb(0,0,0)" stroke="rgb(0,0,0)" stroke-width="1" opacity="1" d="M 256.5 69 L 441 156 L 443 160.5 L 443 352.5 L 439.5 357 L 271.5 437 L 258.5 443 L 254.5 443 L 71 355.5 L 70 353.5 L 70 158.5 L 73.5 155 L 85.5 149 L 256.5 69 Z M 256 83 L 217 102 Q 214 101 215 104 L 379 181 L 420 161 L 256 83 Z M 199 110 L 153 133 L 316 210 L 359 188 Q 361 189 360 186 L 339 177 L 199 110 Z M 136 140 L 92 161 L 256 239 L 300 218 L 136 140 Z M 83 172 L 83 347 L 249 425 L 250 425 L 250 250 L 83 172 Z M 429 172 L 383 193 L 383 257 L 382 259 L 377 262 L 375 261 L 361 261 L 360 260 L 353 260 L 322 288 L 318 290 L 314 289 L 310 286 L 310 228 L 265 249 L 263 251 L 263 425 L 430 347 L 430 173 L 429 172 Z M 367 201 L 323 221 L 324 268 L 348 247 L 369 248 L 369 202 L 367 201 Z " /><path fill="rgb(0,0,0)" stroke="rgb(0,0,0)" stroke-width="1" opacity="1" d="M 152.5 302 L 207.5 327 L 217.5 332 L 221 335.5 Q 222.5 342.5 218.5 344 L 212.5 345 L 153.5 317 L 147 312.5 L 146 307.5 L 149.5 303 L 152.5 302 Z " /><path fill="rgb(0,0,0)" stroke="rgb(0,0,0)" stroke-width="1" opacity="1" d="M 149.5 338 L 155.5 338 L 220 369.5 L 221 376.5 Q 219.7 381.3 212.5 380 L 161.5 356 L 147 347.5 L 146 342.5 L 149.5 338 Z " /></svg>